# xmcd
#
# Track frame offsets:
#	150
#	4752
#	10062
#	15245
#	22967
#	30760
#	35267
#	43165
#	49167
#	56860
#	65662
#	73587
#	83170
#	89595
#	97945
#	102392
#	111762
#	120267
#	128004
#	138765
#	145965
#	152080
#	160575
#	165672
#	169742
#	177545
#	182375
#	190170
#
# Disc length: 2646 seconds
#
# Revision: 1
# Processed by: cddbd v1.4PL0 Copyright (c) Steve Scherf et al.
# Submitted via: audiograbber 1.81.02
#
DISCID=5d0a541c
DTITLE=John Ganapes - Blues You Can Use
DYEAR=1995
DGENRE=Blues
TTITLE0=Tuning
TTITLE1=Texas Rock
TTITLE2=Blues Rock Tune
TTITLE3=True Blue
TTITLE4=Swingin' The Blues (Slow Tempo)
TTITLE5=Swingin' The Blues (Full Tempo)
TTITLE6=Double Stop Stomp (Slow Tempo)
TTITLE7=Double Stop Stomp (Full Tempo)
TTITLE8=Delta Mood
TTITLE9=Bending The Blues
TTITLE10=Bends, Slides and Shifts
TTITLE11=Getting Funky (Slow Tempo)
TTITLE12=Getting Funky (Full Tempo)
TTITLE13=Lazy Day Blues
TTITLE14=Ninth Chord Blues
TTITLE15=Minor Blues
TTITLE16=More Minor Blues
TTITLE17=Major Blues
TTITLE18=Hard Edge Blues (Slow Tempo)
TTITLE19=Hard Edge Blues (Full Tempo)
TTITLE20=Preachin' Gospel Blues
TTITLE21=Blues Sixths
TTITLE22=Hard Rocker (Slow Tempo)
TTITLE23=Hard Rocker (Full Tempo)
TTITLE24=Rockin' and Rollin (Slow Tempo)
TTITLE25=Rockin' And Rollin' (Full Tempo)
TTITLE26=Delta Child
TTITLE27=All Forms Blues
EXTD=An instructional CD for learning blues guitar.
EXTT0=
EXTT1=
EXTT2=
EXTT3=
EXTT4=
EXTT5=
EXTT6=
EXTT7=
EXTT8=
EXTT9=
EXTT10=
EXTT11=
EXTT12=
EXTT13=
EXTT14=
EXTT15=
EXTT16=
EXTT17=
EXTT18=
EXTT19=
EXTT20=
EXTT21=
EXTT22=
EXTT23=
EXTT24=
EXTT25=
EXTT26=
EXTT27=
PLAYORDER=
